<svg width="40" height="40" viewBox="0 0 40 40" fill="none" xmlns="http://www.w3.org/2000/svg">
<path d="M10.118 12.339C10.1367 12.2639 10.17 12.1933 10.2161 12.1312C10.2622 12.069 10.3201 12.0166 10.3866 11.977C10.453 11.9374 10.5267 11.9113 10.6032 11.9003C10.6798 11.8893 10.7578 11.8935 10.8327 11.9128C10.9077 11.9321 10.978 11.966 11.0398 12.0126C11.1015 12.0592 11.1534 12.1176 11.1925 12.1843C11.2316 12.2511 11.257 12.325 11.2674 12.4016C11.2778 12.4783 11.2729 12.5563 11.253 12.631C11.213 12.787 11.193 12.948 11.193 13.111V26.89C11.193 27.948 12.053 28.809 13.111 28.809H26.89C27.053 28.809 27.214 28.789 27.37 28.749C27.4456 28.7262 27.5251 28.7188 27.6036 28.7275C27.6822 28.7361 27.7581 28.7605 27.827 28.7993C27.8958 28.838 27.9561 28.8903 28.0042 28.9529C28.0524 29.0156 28.0873 29.0873 28.107 29.1638C28.1267 29.2403 28.1308 29.32 28.1189 29.3981C28.107 29.4762 28.0794 29.5511 28.0379 29.6183C27.9963 29.6855 27.9416 29.7436 27.877 29.7891C27.8124 29.8346 27.7393 29.8665 27.662 29.883C27.4098 29.948 27.1504 29.9809 26.89 29.981H25.597V31.748C25.597 32.093 25.731 32.418 25.976 32.662L29.831 36.517C30.1756 36.3463 30.5651 36.2879 30.9446 36.35C31.3242 36.412 31.6747 36.5914 31.947 36.863C32.2914 37.208 32.4849 37.6755 32.4849 38.163C32.4849 38.6505 32.2914 39.118 31.947 39.463C31.589 39.821 31.118 40 30.647 40C30.177 40 29.706 39.82 29.347 39.462C29.0756 39.1896 28.8964 38.839 28.8345 38.4595C28.7726 38.0799 28.8312 37.6905 29.002 37.346L25.147 33.491C24.9174 33.2627 24.7353 32.9911 24.6114 32.6919C24.4874 32.3927 24.4241 32.0719 24.425 31.748V29.98H23.092V32.525C23.092 32.6804 23.0303 32.8295 22.9204 32.9394C22.8105 33.0493 22.6614 33.111 22.506 33.111C22.3506 33.111 22.2015 33.0493 22.0917 32.9394C21.9818 32.8295 21.92 32.6804 21.92 32.525V29.98H20.587V39.414C20.587 39.5694 20.5253 39.7185 20.4154 39.8284C20.3055 39.9383 20.1564 40 20.001 40C19.8456 40 19.6965 39.9383 19.5866 39.8284C19.4768 39.7185 19.415 39.5694 19.415 39.414V29.98H18.082V32.525C18.082 32.6804 18.0203 32.8295 17.9104 32.9394C17.8005 33.0493 17.6514 33.111 17.496 33.111C17.3406 33.111 17.1915 33.0493 17.0816 32.9394C16.9718 32.8295 16.91 32.6804 16.91 32.525V29.98H15.577V35.167C15.9418 35.29 16.2588 35.5241 16.4836 35.8366C16.7083 36.1491 16.8295 36.5241 16.83 36.909C16.8295 37.3965 16.6355 37.8638 16.2907 38.2085C15.9459 38.5531 15.4785 38.7468 14.991 38.747C14.5037 38.7465 14.0365 38.5527 13.6919 38.2081C13.3474 37.8635 13.1535 37.3963 13.153 36.909C13.153 36.1 13.678 35.412 14.405 35.167V29.98H13.112C12.2926 29.979 11.5072 29.6529 10.9279 29.0735C10.3486 28.494 10.0228 27.7084 10.022 26.889V25.596H8.25401C7.90901 25.596 7.58401 25.73 7.34001 25.975L3.48601 29.828C3.61101 30.079 3.67801 30.358 3.67801 30.646C3.67801 31.138 3.48701 31.599 3.14001 31.946C2.96972 32.1173 2.76714 32.2532 2.54399 32.3457C2.32085 32.4382 2.08157 32.4856 1.84001 32.485C1.34801 32.485 0.887013 32.294 0.540013 31.946C0.36869 31.7757 0.232838 31.5731 0.140319 31.35C0.0478005 31.1269 0.00045158 30.8876 0.001012 30.646C0.001012 30.156 0.192012 29.694 0.539012 29.346C0.709391 29.1749 0.912009 29.0392 1.13515 28.9469C1.35829 28.8545 1.59752 28.8073 1.83901 28.808C2.12901 28.808 2.40601 28.875 2.65801 29L6.51101 25.146C6.73934 24.9164 7.01097 24.7343 7.31016 24.6104C7.60936 24.4864 7.93017 24.4231 8.25401 24.424H10.021V23.091H7.47601C7.3206 23.091 7.17154 23.0293 7.06165 22.9194C6.95175 22.8095 6.89001 22.6604 6.89001 22.505C6.89001 22.3496 6.95175 22.2006 7.06165 22.0907C7.17154 21.9808 7.3206 21.919 7.47601 21.919H10.021V20.586H0.587012C0.431596 20.586 0.282545 20.5243 0.172649 20.4144C0.0627523 20.3045 0.001012 20.1554 0.001012 20C0.001012 19.8446 0.0627523 19.6956 0.172649 19.5857C0.282545 19.4758 0.431596 19.414 0.587012 19.414H10.021V18.081H7.47601C7.3206 18.081 7.17154 18.0193 7.06165 17.9094C6.95175 17.7995 6.89001 17.6504 6.89001 17.495C6.89001 17.3396 6.95175 17.1906 7.06165 17.0807C7.17154 16.9708 7.3206 16.909 7.47601 16.909H10.021V15.576H4.83401C4.71091 15.9406 4.47667 16.2574 4.16421 16.482C3.85176 16.7065 3.47679 16.8276 3.09201 16.828C2.60471 16.8275 2.13751 16.6337 1.79294 16.2891C1.44836 15.9445 1.25454 15.4773 1.25401 14.99C1.25428 14.5025 1.44798 14.0351 1.79258 13.6903C2.13719 13.3455 2.60453 13.1516 3.09201 13.151C3.90101 13.151 4.58901 13.677 4.83401 14.404H10.021V13.111C10.021 12.85 10.054 12.59 10.119 12.339H10.118ZM30.646 37.495C30.5139 37.4945 30.3847 37.5333 30.2748 37.6066C30.1649 37.6798 30.0792 37.7841 30.0288 37.9062C29.9784 38.0282 29.9655 38.1626 29.9917 38.292C30.0179 38.4215 30.0821 38.5402 30.176 38.633C30.2536 38.7108 30.3491 38.7682 30.4542 38.8002C30.5593 38.8321 30.6706 38.8376 30.7783 38.8162C30.886 38.7948 30.9868 38.7471 31.0717 38.6774C31.1565 38.6077 31.2229 38.5181 31.2648 38.4166C31.3067 38.3151 31.3229 38.2048 31.312 38.0956C31.301 37.9863 31.2633 37.8814 31.2021 37.7902C31.1408 37.699 31.0581 37.6244 30.9611 37.5729C30.8641 37.5214 30.7558 37.4946 30.646 37.495ZM14.99 36.243C14.9024 36.2432 14.8157 36.2605 14.7348 36.2942C14.654 36.3278 14.5805 36.3771 14.5187 36.4391C14.4568 36.5011 14.4078 36.5747 14.3744 36.6557C14.341 36.7367 14.3239 36.8234 14.324 36.911C14.3241 36.9986 14.3415 37.0853 14.3752 37.1662C14.4088 37.2471 14.458 37.3205 14.5201 37.3824C14.5821 37.4442 14.6557 37.4932 14.7367 37.5266C14.8177 37.56 14.9044 37.5772 14.992 37.577C15.1689 37.5768 15.3385 37.5062 15.4634 37.381C15.5883 37.2557 15.6583 37.0859 15.658 36.909C15.6577 36.7321 15.5872 36.5626 15.4619 36.4377C15.3367 36.3128 15.1669 36.2428 14.99 36.243ZM1.83801 29.98C1.75068 29.9799 1.66419 29.9971 1.58353 30.0306C1.50286 30.064 1.42962 30.1131 1.36801 30.175C1.30581 30.2367 1.25646 30.31 1.22282 30.3909C1.18918 30.4717 1.17191 30.5585 1.17201 30.646C1.17135 30.7338 1.18814 30.8208 1.22143 30.9021C1.25471 30.9833 1.30382 31.0571 1.36589 31.1191C1.42796 31.1812 1.50175 31.2303 1.58298 31.2636C1.6642 31.2969 1.75124 31.3137 1.83901 31.313C1.92679 31.3137 2.01382 31.2969 2.09505 31.2636C2.17627 31.2303 2.25007 31.1812 2.31214 31.1191C2.37421 31.0571 2.42331 30.9833 2.4566 30.9021C2.48988 30.8208 2.50668 30.7338 2.50601 30.646C2.50599 30.5586 2.48865 30.4721 2.45501 30.3914C2.42137 30.3108 2.37209 30.2375 2.31001 30.176C2.24825 30.1137 2.17472 30.0643 2.09369 30.0306C2.01266 29.997 1.92575 29.9798 1.83801 29.98ZM20 2.38419e-05C20.324 2.38419e-05 20.586 0.262024 20.586 0.586024V10.02H21.919V7.47502C21.919 7.31961 21.9808 7.17055 22.0907 7.06066C22.2005 6.95076 22.3496 6.88902 22.505 6.88902C22.6604 6.88902 22.8095 6.95076 22.9194 7.06066C23.0293 7.17055 23.091 7.31961 23.091 7.47502V10.02H24.424V4.83302C24.0595 4.70992 23.7426 4.47568 23.5181 4.16323C23.2935 3.85077 23.1725 3.47581 23.172 3.09102C23.1725 2.60372 23.3664 2.13652 23.7109 1.79195C24.0555 1.44737 24.5227 1.25355 25.01 1.25302C25.4975 1.25329 25.9649 1.44699 26.3097 1.79159C26.6545 2.1362 26.8485 2.60354 26.849 3.09102C26.849 3.90002 26.323 4.58802 25.596 4.83302V10.02H26.889C27.7084 10.0211 28.4939 10.3471 29.0732 10.9266C29.6524 11.5061 29.9782 12.2917 29.979 13.111V14.404H31.747C32.092 14.404 32.417 14.269 32.661 14.025L36.515 10.172C36.3884 9.91794 36.3227 9.63789 36.323 9.35402C36.323 8.86202 36.514 8.40102 36.862 8.05402C37.0323 7.8827 37.2349 7.74685 37.458 7.65433C37.6812 7.56181 37.9204 7.51446 38.162 7.51502C38.652 7.51502 39.114 7.70602 39.462 8.05402C39.809 8.40102 40 8.86302 40 9.35402C40 9.84402 39.809 10.306 39.462 10.654C39.2916 10.8252 39.089 10.9608 38.8659 11.0532C38.6427 11.1455 38.4035 11.1927 38.162 11.192C37.8778 11.1925 37.5974 11.1268 37.343 11L33.49 14.854C33.2617 15.0837 32.9901 15.2657 32.6909 15.3897C32.3917 15.5136 32.0709 15.577 31.747 15.576H29.98V16.909H32.525C32.6804 16.909 32.8295 16.9708 32.9394 17.0807C33.0493 17.1906 33.111 17.3396 33.111 17.495C33.111 17.6504 33.0493 17.7995 32.9394 17.9094C32.8295 18.0193 32.6804 18.081 32.525 18.081H29.98V19.414H39.414C39.491 19.414 39.5672 19.4292 39.6383 19.4586C39.7094 19.4881 39.774 19.5312 39.8284 19.5857C39.8828 19.6401 39.926 19.7047 39.9554 19.7758C39.9849 19.8469 40 19.9231 40 20C40 20.077 39.9849 20.1532 39.9554 20.2243C39.926 20.2954 39.8828 20.36 39.8284 20.4144C39.774 20.4688 39.7094 20.512 39.6383 20.5414C39.5672 20.5709 39.491 20.586 39.414 20.586H29.98V21.919H32.525C32.6804 21.919 32.8295 21.9808 32.9394 22.0907C33.0493 22.2006 33.111 22.3496 33.111 22.505C33.111 22.6604 33.0493 22.8095 32.9394 22.9194C32.8295 23.0293 32.6804 23.091 32.525 23.091H29.98V24.424H35.167C35.2901 24.0595 35.5244 23.7426 35.8368 23.5181C36.1493 23.2935 36.5242 23.1725 36.909 23.172C37.3963 23.1726 37.8635 23.3664 38.2081 23.7109C38.5527 24.0555 38.7465 24.5227 38.747 25.01C38.7465 25.4973 38.5527 25.9645 38.2081 26.3091C37.8635 26.6537 37.3963 26.8475 36.909 26.848C36.5242 26.8476 36.1493 26.7265 35.8368 26.502C35.5244 26.2774 35.2901 25.9606 35.167 25.596H29.98V26.889C29.9801 27.1491 29.9476 27.4081 29.883 27.66C29.8653 27.736 29.8326 27.8078 29.7868 27.871C29.741 27.9342 29.6831 27.9876 29.6163 28.0281C29.5496 28.0686 29.4755 28.0953 29.3983 28.1068C29.3211 28.1182 29.2423 28.1142 29.1667 28.0948C29.0911 28.0754 29.0202 28.0411 28.958 27.9939C28.8958 27.9467 28.8437 27.8876 28.8047 27.82C28.7657 27.7524 28.7406 27.6777 28.7309 27.6002C28.7211 27.5228 28.727 27.4442 28.748 27.369C28.788 27.213 28.808 27.052 28.808 26.889V13.11C28.808 12.052 27.947 11.191 26.888 11.191H13.112C12.949 11.191 12.788 11.211 12.632 11.251C12.5564 11.2739 12.4769 11.2812 12.3984 11.2726C12.3199 11.2639 12.2439 11.2395 12.1751 11.2008C12.1062 11.162 12.0459 11.1097 11.9978 11.0471C11.9496 10.9845 11.9147 10.9127 11.895 10.8362C11.8753 10.7597 11.8713 10.68 11.8831 10.6019C11.895 10.5238 11.9226 10.4489 11.9642 10.3817C12.0057 10.3146 12.0605 10.2565 12.125 10.211C12.1896 10.1655 12.2628 10.1335 12.34 10.117C12.591 10.052 12.85 10.019 13.112 10.019H14.405V8.25202C14.405 7.90702 14.271 7.58202 14.026 7.33802L10.171 3.48302C9.82646 3.65369 9.43711 3.7122 9.05761 3.65032C8.67811 3.58845 8.32751 3.4093 8.05501 3.13802C7.7106 2.79305 7.51717 2.32549 7.51717 1.83802C7.51717 1.35055 7.7106 0.883003 8.05501 0.538024C8.39999 0.193615 8.86754 0.00017643 9.35501 0.00017643C9.84248 0.00017643 10.31 0.193615 10.655 0.538024C10.9264 0.810444 11.1057 1.16105 11.1675 1.54059C11.2294 1.92012 11.1708 2.3095 11 2.65402L14.855 6.50902C15.321 6.97502 15.577 7.59402 15.577 8.25202V10.019H16.91V7.47402C16.91 7.31861 16.9718 7.16956 17.0816 7.05966C17.1915 6.94976 17.3406 6.88802 17.496 6.88802C17.6514 6.88802 17.8005 6.94976 17.9104 7.05966C18.0203 7.16956 18.082 7.31861 18.082 7.47402V10.019H19.415V0.585023C19.415 0.261023 19.677 -0.000976562 20.001 -0.000976562L20 2.38419e-05ZM21.761 13.151C23.056 13.151 24.109 14.117 24.109 15.303C24.1085 15.4621 24.089 15.6206 24.051 15.775C25.306 16.12 26.222 17.181 26.222 18.435C26.222 19.137 25.922 19.807 25.407 20.313C25.923 20.82 26.222 21.49 26.222 22.192C26.222 23.147 25.678 24.032 24.808 24.536C24.721 25.824 23.546 26.849 22.114 26.849C21.7154 26.8529 21.3205 26.7715 20.9559 26.6102C20.5913 26.449 20.2654 26.2116 20 25.914C19.7347 26.2116 19.4088 26.449 19.0442 26.6102C18.6796 26.7715 18.2847 26.8529 17.886 26.849C16.398 26.849 15.186 25.743 15.186 24.384C14.31 23.805 13.778 22.875 13.778 21.879C13.778 21.224 14.004 20.609 14.395 20.102C13.9976 19.637 13.7789 19.0457 13.778 18.434C13.778 17.181 14.694 16.12 15.949 15.774C15.9111 15.6202 15.8917 15.4624 15.891 15.304C15.891 14.117 16.944 13.151 18.239 13.151C18.939 13.151 19.569 13.435 20 13.883C20.2293 13.6489 20.5034 13.4634 20.8059 13.3376C21.1085 13.2118 21.4333 13.1484 21.761 13.151ZM21.761 14.323C21.113 14.323 20.586 14.763 20.586 15.303C20.586 15.4584 20.5243 15.6075 20.4144 15.7174C20.3045 15.8273 20.1554 15.889 20 15.889C19.8446 15.889 19.6955 15.8273 19.5856 15.7174C19.4758 15.6075 19.414 15.4584 19.414 15.303C19.414 14.763 18.887 14.323 18.239 14.323C17.59 14.323 17.063 14.763 17.063 15.303C17.0656 15.51 17.1418 15.7092 17.278 15.865V15.866L17.307 15.903L17.315 15.913L17.328 15.935C17.383 16.0237 17.4134 16.1255 17.4159 16.2298C17.4185 16.3341 17.3931 16.4373 17.3424 16.5285C17.2917 16.6198 17.2176 16.6958 17.1277 16.7488C17.0378 16.8018 16.9354 16.8299 16.831 16.83L16.815 16.829C15.785 16.835 14.95 17.553 14.949 18.434C14.949 18.753 15.061 19.059 15.269 19.32C15.601 19.1164 15.9642 18.9684 16.344 18.882C16.4939 18.8514 16.6499 18.8805 16.7785 18.9633C16.9072 19.0461 16.9984 19.176 17.0326 19.3251C17.0668 19.4742 17.0413 19.6308 16.9616 19.7614C16.8819 19.892 16.7543 19.9863 16.606 20.024C15.631 20.248 14.949 21.011 14.949 21.879C14.949 22.36 15.165 22.821 15.535 23.171C15.635 23.008 15.757 22.856 15.897 22.716C15.9511 22.6597 16.0159 22.6147 16.0876 22.5838C16.1594 22.5529 16.2365 22.5366 16.3146 22.5359C16.3927 22.5352 16.4702 22.5502 16.5424 22.5799C16.6147 22.6096 16.6803 22.6534 16.7353 22.7088C16.7904 22.7642 16.8338 22.83 16.8631 22.9024C16.8923 22.9749 16.9068 23.0524 16.9056 23.1305C16.9045 23.2086 16.8877 23.2857 16.8564 23.3572C16.825 23.4287 16.7797 23.4933 16.723 23.547C16.488 23.781 16.358 24.078 16.358 24.384C16.358 25.097 17.044 25.677 17.886 25.677C18.729 25.677 19.414 25.097 19.414 24.384V23.13C19.414 22.593 19.013 22.105 18.415 21.918C18.2694 21.8694 18.1486 21.7655 18.0788 21.6287C18.009 21.4919 17.9956 21.3332 18.0416 21.1867C18.0876 21.0402 18.1893 20.9176 18.3248 20.8453C18.4602 20.773 18.6187 20.7567 18.766 20.8C19 20.873 19.216 20.975 19.414 21.1V17.846C19.414 17.6906 19.4758 17.5416 19.5856 17.4317C19.6955 17.3218 19.8446 17.26 20 17.26C20.1554 17.26 20.3045 17.3218 20.4144 17.4317C20.5243 17.5416 20.586 17.6906 20.586 17.846V18.595C21.02 18.321 21.546 18.161 22.113 18.161C22.2684 18.161 22.4175 18.2228 22.5274 18.3327C22.6373 18.4426 22.699 18.5916 22.699 18.747C22.699 18.9024 22.6373 19.0515 22.5274 19.1614C22.4175 19.2713 22.2684 19.333 22.113 19.333C21.271 19.333 20.586 19.913 20.586 20.625V24.383C20.586 25.096 21.271 25.676 22.113 25.676C22.956 25.676 23.641 25.096 23.641 24.383C23.641 23.845 23.24 23.358 22.642 23.17C22.4938 23.1233 22.3701 23.0197 22.2983 22.8818C22.2265 22.744 22.2123 22.5833 22.259 22.435C22.3057 22.2868 22.4094 22.1631 22.5472 22.0913C22.685 22.0195 22.8458 22.0053 22.994 22.052C23.6491 22.2493 24.2015 22.6941 24.534 23.292C24.858 22.998 25.05 22.604 25.05 22.191C25.05 21.637 24.713 21.128 24.149 20.831C24.0546 20.7813 23.9755 20.7067 23.9204 20.6153C23.8652 20.524 23.8361 20.4193 23.8361 20.3125C23.8361 20.2058 23.8652 20.1011 23.9204 20.0097C23.9755 19.9183 24.0546 19.8438 24.149 19.794C24.713 19.496 25.05 18.987 25.05 18.434C25.05 17.552 24.215 16.834 23.185 16.828H23.161C22.8798 16.8278 22.6014 16.8835 22.342 16.992C22.2709 17.0229 22.1944 17.0393 22.117 17.0404C22.0395 17.0415 21.9626 17.0272 21.8906 16.9984C21.8187 16.9696 21.7532 16.9267 21.698 16.8724C21.6427 16.8181 21.5988 16.7534 21.5687 16.682C21.5386 16.6106 21.523 16.5339 21.5227 16.4564C21.5224 16.3789 21.5376 16.3022 21.5672 16.2306C21.5968 16.159 21.6403 16.0939 21.6952 16.0393C21.7501 15.9846 21.8153 15.9413 21.887 15.912C22.193 15.782 22.515 15.702 22.849 15.671C22.9066 15.5565 22.9368 15.4302 22.937 15.302C22.937 14.762 22.409 14.322 21.761 14.322V14.323ZM36.909 24.343C36.8214 24.3431 36.7346 24.3604 36.6536 24.394C36.5726 24.4276 36.4991 24.4769 36.4372 24.5389C36.3752 24.6009 36.3261 24.6745 36.2926 24.7555C36.2591 24.8366 36.2419 24.9234 36.242 25.011C36.2421 25.0987 36.2594 25.1855 36.293 25.2664C36.3266 25.3474 36.3758 25.4209 36.4379 25.4829C36.4999 25.5448 36.5735 25.5939 36.6545 25.6274C36.7355 25.6609 36.8224 25.6781 36.91 25.678C37.0869 25.678 37.2566 25.6077 37.3817 25.4827C37.5067 25.3576 37.577 25.1879 37.577 25.011C37.577 24.8341 37.5067 24.6645 37.3817 24.5394C37.2566 24.4143 37.0869 24.344 36.91 24.344L36.909 24.343ZM3.09101 14.323C3.00335 14.3231 2.91657 14.3404 2.83561 14.374C2.75465 14.4076 2.6811 14.4569 2.61916 14.5189C2.55723 14.5809 2.50812 14.6545 2.47463 14.7355C2.44115 14.8166 2.42395 14.9034 2.42401 14.991C2.42408 15.0787 2.44141 15.1655 2.47501 15.2464C2.50862 15.3274 2.55784 15.4009 2.61987 15.4629C2.6819 15.5248 2.75552 15.5739 2.83653 15.6074C2.91754 15.6409 3.00435 15.6581 3.09201 15.658C3.26904 15.6579 3.43877 15.5874 3.56386 15.4622C3.68895 15.3369 3.75915 15.1671 3.75901 14.99C3.75888 14.813 3.68843 14.6433 3.56315 14.5182C3.43788 14.3931 3.26804 14.3229 3.09101 14.323ZM38.161 8.68702C38.0737 8.68692 37.9872 8.7041 37.9065 8.73756C37.8259 8.77103 37.7526 8.82013 37.691 8.88202C37.6287 8.94378 37.5793 9.01732 37.5456 9.09835C37.512 9.17938 37.4948 9.26629 37.495 9.35402C37.4943 9.4418 37.5111 9.52883 37.5444 9.61006C37.5777 9.69128 37.6268 9.76508 37.6889 9.82715C37.751 9.88922 37.8247 9.93832 37.906 9.97161C37.9872 10.0049 38.0742 10.0217 38.162 10.021C38.34 10.021 38.507 9.95103 38.632 9.82502C38.6942 9.76338 38.7436 9.69001 38.7772 9.60916C38.8108 9.52831 38.8281 9.44159 38.828 9.35402C38.8284 9.26636 38.8113 9.17949 38.7779 9.09846C38.7444 9.01744 38.6951 8.94387 38.633 8.88202C38.5713 8.82001 38.4979 8.77084 38.417 8.73737C38.3362 8.7039 38.2495 8.68679 38.162 8.68702H38.161ZM25.011 2.42402C24.834 2.42402 24.6642 2.49435 24.539 2.61953C24.4138 2.74471 24.3435 2.91449 24.3435 3.09152C24.3435 3.26856 24.4138 3.43834 24.539 3.56352C24.6642 3.6887 24.834 3.75902 25.011 3.75902C25.188 3.75902 25.3578 3.6887 25.483 3.56352C25.6082 3.43834 25.6785 3.26856 25.6785 3.09152C25.6785 2.91449 25.6082 2.74471 25.483 2.61953C25.3578 2.49435 25.188 2.42402 25.011 2.42402ZM9.35401 1.17202C9.26431 1.16869 9.17486 1.18349 9.09101 1.21554C9.00717 1.2476 8.93066 1.29625 8.86606 1.35858C8.80147 1.42091 8.75012 1.49564 8.71509 1.57828C8.68006 1.66093 8.66208 1.7498 8.66221 1.83956C8.66235 1.92933 8.6806 2.01814 8.71587 2.10068C8.75115 2.18322 8.80272 2.2578 8.86751 2.31993C8.93229 2.38207 9.00894 2.43049 9.09288 2.46229C9.17682 2.4941 9.26632 2.50863 9.35601 2.50502C9.52831 2.49809 9.69122 2.42471 9.81058 2.30027C9.92994 2.17583 9.99647 2.00999 9.99621 1.83756C9.99595 1.66513 9.92892 1.4995 9.80919 1.37541C9.68946 1.25133 9.52633 1.17844 9.35401 1.17202Z" fill="white"/>
</svg>
