<svg width="40" height="40" viewBox="0 0 40 40" fill="none" xmlns="http://www.w3.org/2000/svg">
<path d="M20 0C21.1972 0.00158749 22.345 0.477889 23.1915 1.32446C24.0381 2.17103 24.5144 3.31877 24.516 4.516C24.5155 5.24658 24.3378 5.96613 23.9979 6.61287C23.6581 7.2596 23.1664 7.81419 22.565 8.229C25.212 9.26 27.097 11.83 27.097 14.839V18.065H20.645V18.71C20.645 19.066 20.935 19.355 21.29 19.355H22.58C23.648 19.355 24.516 20.223 24.516 21.29V22.58C24.5155 23.0931 24.3115 23.5851 23.9487 23.948C23.586 24.3109 23.0941 24.5152 22.581 24.516H21.428L22.118 25.206L21.154 26.796C21.201 26.896 21.235 26.996 21.278 27.096H27.565C27.013 26.6135 26.5706 26.0186 26.2672 25.3511C25.9639 24.6837 25.8066 23.9591 25.806 23.226C25.8076 21.8575 26.352 20.5456 27.3197 19.578C28.2875 18.6105 29.5995 18.0663 30.968 18.065C32.3361 18.0666 33.6478 18.6107 34.6153 19.578C35.5828 20.5453 36.1271 21.8569 36.129 23.225C36.129 23.9913 35.9581 24.748 35.6287 25.44C35.2993 26.132 34.8198 26.7418 34.225 27.225C37.508 27.846 40 30.732 40 34.194V40H25.161V32.58C25.1605 32.3237 25.0584 32.078 24.8772 31.8968C24.696 31.7156 24.4503 31.6135 24.194 31.613H23.226V32.763L21.424 33.206C21.344 33.421 21.254 33.636 21.155 33.848L22.118 35.438L18.665 38.892L17.075 37.929C16.861 38.029 16.647 38.119 16.433 38.197L15.99 40H11.107L10.665 38.198C10.4474 38.1174 10.2333 38.028 10.023 37.93L8.433 38.892L4.979 35.439L5.942 33.849C5.84408 33.6387 5.75467 33.4245 5.674 33.207L3.871 32.764V27.88L5.674 27.437C5.753 27.223 5.843 27.009 5.942 26.795L4.979 25.205L5.669 24.515H4.516C4.00305 24.5142 3.51134 24.3101 3.14862 23.9474C2.78591 23.5847 2.58179 23.093 2.581 22.58V21.29C2.581 20.222 3.449 19.354 4.516 19.354H5.806C5.89079 19.3541 5.97477 19.3375 6.05314 19.3052C6.13151 19.2728 6.20273 19.2253 6.26273 19.1654C6.32273 19.1055 6.37033 19.0344 6.40281 18.9561C6.43528 18.8777 6.452 18.7938 6.452 18.709V18.064H0V14.838C0 11.829 1.885 9.259 4.532 8.228C3.93061 7.81319 3.43888 7.2586 3.09905 6.61186C2.75923 5.96513 2.58145 5.24558 2.581 4.515C2.58285 3.31794 3.05927 2.17046 3.90581 1.3241C4.75235 0.47775 5.89994 0.00158688 7.097 0C8.29423 0.00158749 9.44197 0.477889 10.2885 1.32446C11.1351 2.17103 11.6114 3.31877 11.613 4.516C11.6124 5.24667 11.4345 5.96628 11.0945 6.61302C10.7545 7.25976 10.2626 7.8143 9.661 8.229C11.3838 8.90157 12.7777 10.2176 13.548 11.899C14.3185 10.2177 15.7123 8.90175 17.435 8.229C16.8336 7.81419 16.3419 7.2596 16.0021 6.61287C15.6622 5.96613 15.4845 5.24658 15.484 4.516C15.4856 3.31877 15.9619 2.17103 16.8085 1.32446C17.655 0.477889 18.8028 0.00158749 20 0ZM32.903 28.387H15.806C15.5569 28.3983 15.3217 28.5053 15.1494 28.6856C14.9772 28.8658 14.881 29.1056 14.881 29.355C14.881 29.6044 14.9772 29.8442 15.1494 30.0244C15.3217 30.2047 15.5569 30.3117 15.806 30.323H24.194C24.7927 30.3235 25.3667 30.5616 25.7901 30.9849C26.2134 31.4083 26.4515 31.9823 26.452 32.581V38.71H35.484V31.613H36.774V38.71H38.71V34.194C38.7084 32.6544 38.0961 31.1783 37.0074 30.0896C35.9187 29.0009 34.4426 28.3886 32.903 28.387ZM14.978 21.935H12.118L11.748 23.449L11.401 23.559C11.0174 23.6818 10.645 23.8374 10.288 24.024L9.968 24.191L8.629 23.381L6.608 25.403L7.418 26.741L7.25 27.061C7.06357 27.4184 6.908 27.7911 6.785 28.175L6.675 28.521L5.161 28.893V31.753L6.675 32.123L6.784 32.47C6.901 32.838 7.057 33.213 7.25 33.583L7.417 33.903L6.607 35.242L8.628 37.263L9.966 36.453L10.288 36.621C10.658 36.813 11.032 36.97 11.402 37.087L11.746 37.197L12.119 38.71H14.979L15.349 37.196L15.695 37.087C16.0787 36.9639 16.451 36.8079 16.808 36.621L17.13 36.454L18.468 37.264L20.489 35.243L19.679 33.905L19.846 33.583C20.039 33.213 20.196 32.839 20.313 32.469L20.423 32.125L21.935 31.752V31.612H19.21C18.9167 32.8945 18.197 34.0396 17.1685 34.8601C16.14 35.6806 14.8637 36.1279 13.548 36.129C12.0087 36.1271 10.533 35.5149 9.44458 34.4264C8.35615 33.338 7.74385 31.8623 7.742 30.323C7.74359 28.7836 8.35577 27.3076 9.44423 26.2189C10.5327 25.1303 12.0085 24.5179 13.548 24.516C15.484 24.516 17.288 25.501 18.361 27.097H19.864L19.847 27.063L19.68 26.741L20.49 25.403L18.468 23.382L17.13 24.192L16.809 24.025C16.4519 23.8383 16.0796 23.6824 15.696 23.559L15.35 23.449L14.978 21.935ZM13.548 25.806C12.3506 25.8076 11.2027 26.284 10.3561 27.1308C9.50951 27.9776 9.03332 29.1256 9.032 30.323C9.03359 31.5202 9.50989 32.668 10.3565 33.5145C11.203 34.3611 12.3508 34.8374 13.548 34.839C14.5202 34.838 15.4663 34.5236 16.2457 33.9425C17.0252 33.3614 17.5965 32.5445 17.875 31.613H16.504C16.2496 32.1957 15.8287 32.6902 15.2942 33.0343C14.7596 33.3785 14.1352 33.557 13.4995 33.5474C12.8638 33.5377 12.2451 33.3404 11.7212 32.9802C11.1973 32.62 10.7916 32.113 10.555 31.5229C10.3184 30.9328 10.2615 30.2859 10.3914 29.6635C10.5214 29.0412 10.8324 28.4711 11.2854 28.025C11.7384 27.5789 12.3131 27.2766 12.9374 27.1561C13.5616 27.0357 14.2076 27.1024 14.794 27.348C15.1068 27.1857 15.4536 27.0997 15.806 27.097H16.704C15.86 26.2727 14.7278 25.8099 13.548 25.807V25.806ZM13.548 28.387C13.0349 28.3878 12.543 28.5921 12.1803 28.955C11.8175 29.3179 11.6135 29.8099 11.613 30.323C11.613 31.39 12.481 32.258 13.548 32.258C14.171 32.258 14.732 31.958 15.09 31.485C14.6423 31.3361 14.2527 31.0505 13.976 30.6683C13.6994 30.2861 13.5496 29.8268 13.548 29.355C13.548 29.018 13.628 28.702 13.76 28.415C13.689 28.406 13.62 28.387 13.548 28.387ZM30.968 19.355C29.9418 19.3561 28.958 19.7641 28.2323 20.4896C27.5066 21.2151 27.0983 22.1988 27.097 23.225C27.0978 24.2513 27.5057 25.2354 28.2313 25.9613C28.9568 26.6872 29.9407 27.0957 30.967 27.097C31.9935 27.0962 32.9777 26.6881 33.7037 25.9624C34.4296 25.2366 34.8379 24.2525 34.839 23.226C34.8379 22.1997 34.4298 21.2157 33.704 20.49C32.9783 19.7642 31.9943 19.3561 30.968 19.355ZM19.355 18.065H7.742V18.71C7.74121 19.2231 7.53695 19.715 7.17402 20.0777C6.81109 20.4405 6.31912 20.6445 5.806 20.645H4.516C4.34494 20.645 4.18088 20.713 4.05992 20.8339C3.93895 20.9549 3.871 21.1189 3.871 21.29V22.58C3.871 22.937 4.16 23.226 4.516 23.226H6.959L8.432 21.754L10.022 22.716C10.235 22.616 10.45 22.527 10.664 22.448L11.107 20.645H15.99L16.433 22.448C16.647 22.528 16.861 22.617 17.075 22.716L18.665 21.754L20.137 23.226H22.581C22.7521 23.226 22.9161 23.158 23.0371 23.0371C23.158 22.9161 23.226 22.7521 23.226 22.581V21.291C23.2261 21.2062 23.2095 21.1222 23.1772 21.0439C23.1448 20.9655 23.0973 20.8943 23.0374 20.8343C22.9775 20.7743 22.9064 20.7267 22.8281 20.6942C22.7497 20.6617 22.6658 20.645 22.581 20.645H21.291C20.7779 20.6445 20.2859 20.4405 19.923 20.0777C19.5601 19.715 19.3558 19.2231 19.355 18.71V18.065ZM7.097 9.032C5.55738 9.03359 4.08127 9.64591 2.99259 10.7346C1.90391 11.8233 1.29159 13.2994 1.29 14.839V16.774H3.226V11.613H4.516V16.774H9.677V11.613H10.967V16.774H12.903V14.84C12.9014 13.3005 12.2892 11.8246 11.2008 10.7359C10.1123 9.64729 8.63645 9.03485 7.097 9.033V9.032ZM20 9.032C18.4605 9.03385 16.9847 9.64629 15.8962 10.7349C14.8078 11.8236 14.1956 13.2995 14.194 14.839V16.774H16.129V11.613H17.419V16.774H22.581V11.613H23.871V16.774H25.806V14.84C25.8047 13.3004 25.1926 11.8242 24.1041 10.7353C23.0156 9.64643 21.5396 9.03385 20 9.032ZM35.484 7.742C36.6812 7.74359 37.829 8.21989 38.6755 9.06646C39.5221 9.91303 39.9984 11.0608 40 12.258C39.9984 13.4552 39.5221 14.603 38.6755 15.4495C37.829 16.2961 36.6812 16.7724 35.484 16.774H28.387V12.258C28.3886 11.0608 28.8649 9.91303 29.7115 9.06646C30.558 8.21989 31.7058 7.74359 32.903 7.742H35.484ZM35.484 9.032H32.904C32.0486 9.03279 31.2284 9.3729 30.6234 9.97769C30.0184 10.5825 29.6781 11.4026 29.677 12.258V15.484H35.484C36.3393 15.4829 37.1592 15.1427 37.764 14.538C38.3687 13.9332 38.7089 13.1133 38.71 12.258C38.7089 11.4027 38.3687 10.5828 37.764 9.97804C37.1592 9.37328 36.3393 9.03306 35.484 9.032ZM32.258 12.903V14.193H30.968V12.903H32.258ZM34.838 12.903V14.193H33.548V12.903H34.838ZM37.419 12.903V14.193H36.129V12.903H37.419ZM37.419 10.323V11.613H30.968V10.323H37.419ZM7.097 1.29C6.24174 1.29106 5.42181 1.63128 4.81704 2.23604C4.21228 2.84081 3.87206 3.66074 3.871 4.516C3.87206 5.37126 4.21228 6.19119 4.81704 6.79596C5.42181 7.40072 6.24174 7.74094 7.097 7.742C7.95226 7.74094 8.77219 7.40072 9.37696 6.79596C9.98172 6.19119 10.3219 5.37126 10.323 4.516C10.3219 3.66074 9.98172 2.84081 9.37696 2.23604C8.77219 1.63128 7.95226 1.29106 7.097 1.29ZM20 1.29C19.1447 1.29106 18.3248 1.63128 17.72 2.23604C17.1153 2.84081 16.7751 3.66074 16.774 4.516C16.7751 5.37126 17.1153 6.19119 17.72 6.79596C18.3248 7.40072 19.1447 7.74094 20 7.742C20.8553 7.74094 21.6752 7.40072 22.28 6.79596C22.8847 6.19119 23.2249 5.37126 23.226 4.516C23.2249 3.66074 22.8847 2.84081 22.28 2.23604C21.6752 1.63128 20.8553 1.29106 20 1.29Z" fill="white"/>
</svg>
