<svg width="34" height="40" viewBox="0 0 34 40" fill="none" xmlns="http://www.w3.org/2000/svg">
<path d="M20.633 0C21.4527 0.00105839 22.2386 0.327162 22.8182 0.906796C23.3978 1.48643 23.7239 2.27227 23.725 3.092V10.662C28.955 10.948 33.118 15.027 33.118 20C33.118 24.973 28.956 29.052 23.725 29.338V36.908C23.7242 37.7278 23.3982 38.5138 22.8185 39.0935C22.2388 39.6732 21.4528 39.9992 20.633 40H3.09898C2.27918 39.9992 1.49318 39.6732 0.913485 39.0935C0.333794 38.5138 0.00777515 37.7278 0.0069809 36.908V29.668C0.0069809 29.5123 0.0688254 29.363 0.178909 29.2529C0.288993 29.1428 0.438299 29.081 0.593981 29.081C0.749663 29.081 0.898968 29.1428 1.00905 29.2529C1.11914 29.363 1.18098 29.5123 1.18098 29.668V33.19H22.551V29.338C21.5657 29.2857 20.5928 29.0944 19.661 28.77L15.278 31.161C14.812 31.415 14.265 30.941 14.445 30.445L15.753 26.849H9.04798C8.89242 26.8484 8.74334 26.7866 8.63298 26.677L3.93598 21.981C3.82644 21.8706 3.76467 21.7215 3.76398 21.566V8.728C3.76398 8.404 4.02698 8.141 4.35098 8.141H19.381C19.705 8.141 19.968 8.404 19.968 8.728V11.13C20.787 10.872 21.653 10.711 22.551 10.662V6.184H1.17998V26.888C1.17998 26.9651 1.1648 27.0414 1.1353 27.1126C1.1058 27.1839 1.06256 27.2486 1.00805 27.3031C0.953545 27.3576 0.888834 27.4008 0.817616 27.4303C0.746397 27.4598 0.670067 27.475 0.592981 27.475C0.515895 27.475 0.439563 27.4598 0.368345 27.4303C0.297127 27.4008 0.232418 27.3576 0.17791 27.3031C0.123402 27.2486 0.0801625 27.1839 0.050663 27.1126C0.0211635 27.0414 0.00598144 26.9651 0.00598145 26.888V3.092C0.00704036 2.2721 0.333281 1.4861 0.91313 0.906443C1.49298 0.326781 2.27908 0.000793791 3.09898 0H20.633ZM22.551 34.364H1.17998V36.908C1.18051 37.4165 1.38275 37.9041 1.74233 38.2636C2.10191 38.6232 2.58946 38.8255 3.09798 38.826H20.632C21.1405 38.8255 21.628 38.6232 21.9876 38.2636C22.3472 37.9041 22.5494 37.4165 22.55 36.908V34.364H22.551ZM13.118 35.069C13.443 35.069 13.705 35.331 13.705 35.656V37.534C13.705 37.6111 13.6898 37.6874 13.6603 37.7586C13.6308 37.8299 13.5876 37.8946 13.5331 37.9491C13.4785 38.0036 13.4138 38.0468 13.3426 38.0763C13.2714 38.1058 13.1951 38.121 13.118 38.121H10.613C10.5359 38.121 10.4596 38.1058 10.3883 38.0763C10.3171 38.0468 10.2524 38.0036 10.1979 37.9491C10.1434 37.8946 10.1002 37.8299 10.0707 37.7586C10.0412 37.6874 10.026 37.6111 10.026 37.534V35.656C10.026 35.331 10.289 35.069 10.613 35.069H13.118ZM12.531 36.243H11.201V36.947H12.531V36.243ZM23.138 11.82C18.282 11.82 14.332 15.49 14.332 20C14.332 22.217 15.272 24.293 16.979 25.846C17.156 26.006 17.218 26.256 17.136 26.481L16.08 29.386L19.331 27.613C19.4054 27.5723 19.4877 27.5482 19.5723 27.5423C19.6568 27.5364 19.7417 27.5489 19.821 27.579C20.8811 27.9788 22.005 28.1824 23.138 28.18C27.994 28.18 31.944 24.51 31.944 20C31.944 15.49 27.994 11.82 23.138 11.82ZM23.138 13.15C23.462 13.15 23.725 13.414 23.725 13.738V15.029H23.765C24.4186 15.0301 25.0451 15.2902 25.5072 15.7525C25.9693 16.2148 26.2292 16.8414 26.23 17.495V18.121C26.23 18.2767 26.1681 18.426 26.0581 18.5361C25.948 18.6462 25.7987 18.708 25.643 18.708C25.4873 18.708 25.338 18.6462 25.2279 18.5361C25.1178 18.426 25.056 18.2767 25.056 18.121V17.495C25.056 16.783 24.476 16.204 23.764 16.204H22.824C21.94 16.204 21.22 16.924 21.22 17.808C21.22 18.693 21.94 19.413 22.825 19.413H23.451C24.1878 19.4138 24.8942 19.7068 25.4152 20.2278C25.9361 20.7488 26.2292 21.4552 26.23 22.192C26.23 23.632 25.13 24.819 23.725 24.957V26.262C23.725 26.4177 23.6631 26.567 23.5531 26.6771C23.443 26.7872 23.2937 26.849 23.138 26.849C22.9823 26.849 22.833 26.7872 22.7229 26.6771C22.6128 26.567 22.551 26.4177 22.551 26.262V24.971H22.511C21.8574 24.9699 21.2309 24.7098 20.7688 24.2475C20.3067 23.7852 20.0468 23.1586 20.046 22.505C20.046 22.3493 20.1078 22.2 20.2179 22.0899C20.328 21.9798 20.4773 21.918 20.633 21.918C20.7887 21.918 20.938 21.9798 21.0481 22.0899C21.1581 22.2 21.22 22.3493 21.22 22.505C21.22 23.217 21.8 23.796 22.512 23.796H23.451C24.336 23.796 25.056 23.076 25.056 22.192C25.056 21.307 24.336 20.587 23.451 20.587H22.825C22.088 20.5865 21.3814 20.2935 20.8602 19.7725C20.339 19.2515 20.0458 18.545 20.045 17.808C20.045 16.368 21.147 15.181 22.551 15.043V13.738C22.551 13.414 22.814 13.151 23.138 13.151V13.15ZM18.793 9.315H4.93798V20.978H9.04798C9.37198 20.978 9.63498 21.241 9.63498 21.566V25.676H15.202C13.875 24.054 13.158 22.083 13.158 20C13.158 18.888 13.366 17.82 13.748 16.83H7.48198C7.3263 16.83 7.17699 16.7682 7.06691 16.6581C6.95683 16.548 6.89498 16.3987 6.89498 16.243C6.89498 16.0873 6.95683 15.938 7.06691 15.8279C7.17699 15.7178 7.3263 15.656 7.48198 15.656H14.302C14.701 14.945 15.195 14.287 15.768 13.699H13.745C13.5893 13.699 13.44 13.6372 13.3299 13.5271C13.2198 13.417 13.158 13.2677 13.158 13.112C13.158 12.9563 13.2198 12.807 13.3299 12.6969C13.44 12.5868 13.5893 12.525 13.745 12.525H16.875C16.951 12.525 17.023 12.539 17.089 12.565C17.619 12.185 18.189 11.855 18.793 11.58V9.315ZM8.46098 22.153H5.76898L8.46098 24.845V22.153ZM11.866 18.787C12.0217 18.787 12.171 18.8488 12.2811 18.9589C12.3911 19.069 12.453 19.2183 12.453 19.374C12.453 19.5297 12.3911 19.679 12.2811 19.7891C12.171 19.8992 12.0217 19.961 11.866 19.961H7.48198C7.3263 19.961 7.17699 19.8992 7.06691 19.7891C6.95683 19.679 6.89498 19.5297 6.89498 19.374C6.89498 19.2183 6.95683 19.069 7.06691 18.9589C7.17699 18.8488 7.3263 18.787 7.48198 18.787H11.866ZM11.24 12.524C11.3958 12.524 11.5452 12.5859 11.6554 12.6961C11.7656 12.8063 11.8275 12.9557 11.8275 13.1115C11.8275 13.2673 11.7656 13.4167 11.6554 13.5269C11.5452 13.6371 11.3958 13.699 11.24 13.699H7.48198C7.32617 13.699 7.17673 13.6371 7.06656 13.5269C6.95638 13.4167 6.89448 13.2673 6.89448 13.1115C6.89448 12.9557 6.95638 12.8063 7.06656 12.6961C7.17673 12.5859 7.32617 12.524 7.48198 12.524H11.24ZM20.633 1.174H3.09898C2.59046 1.17453 2.10292 1.37677 1.74334 1.73635C1.38376 2.09593 1.18151 2.58348 1.18098 3.092V5.01H22.551V3.092C22.5504 2.58348 22.3482 2.09593 21.9886 1.73635C21.629 1.37677 21.1415 1.17453 20.633 1.174ZM13.118 2.504C13.2738 2.504 13.4232 2.5659 13.5334 2.67607C13.6436 2.78625 13.7055 2.93568 13.7055 3.0915C13.7055 3.24731 13.6436 3.39675 13.5334 3.50693C13.4232 3.6171 13.2738 3.679 13.118 3.679H10.613C10.4573 3.679 10.308 3.61716 10.1979 3.50707C10.0878 3.39699 10.026 3.24768 10.026 3.092C10.026 2.93632 10.0878 2.78701 10.1979 2.67693C10.308 2.56684 10.4573 2.505 10.613 2.505L13.118 2.504Z" fill="white"/>
</svg>
