<svg width="40" height="40" viewBox="0 0 40 40" fill="none" xmlns="http://www.w3.org/2000/svg">
<path d="M29.984 0C30.8674 0.00105857 31.7143 0.352447 32.3389 0.977089C32.9636 1.60173 33.3149 2.44862 33.316 3.332V7.059L37.426 11.177C39.0548 12.8064 39.9727 15.0141 39.979 17.318V39.312C39.9791 39.3996 39.962 39.4864 39.9285 39.5674C39.895 39.6484 39.8459 39.722 39.7839 39.7839C39.722 39.8459 39.6484 39.895 39.5674 39.9285C39.4864 39.962 39.3996 39.9791 39.312 39.979H27.32C27.2324 39.9791 27.1456 39.962 27.0646 39.9285C26.9836 39.895 26.91 39.8459 26.8481 39.7839C26.7861 39.722 26.737 39.6484 26.7035 39.5674C26.67 39.4864 26.6529 39.3996 26.653 39.312V32.84L26.271 32.228C25.48 30.9639 24.9934 29.5334 24.8493 28.0492C24.7053 26.565 24.9078 25.0676 25.441 23.675L9.799 29.7C8.97457 30.0177 8.05769 29.995 7.25 29.6368C6.44232 29.2787 5.80996 28.6143 5.492 27.79L2.988 21.288C2.17043 21.2047 1.41267 20.8216 0.860901 20.2126C0.309129 19.6036 0.00244176 18.8118 0 17.99V3.332C0.00105857 2.44862 0.352447 1.60173 0.977089 0.977089C1.60173 0.352447 2.44862 0.00105857 3.332 0H29.984ZM38.646 33.316H27.986V38.646H38.646V33.316ZM30.65 34.648V35.981H29.318V34.648H30.65ZM34.325 9.958L36.58 15.813C36.8971 16.6372 36.8741 17.5536 36.5159 18.3608C36.1578 19.168 35.4939 19.8 34.67 20.118L33.987 20.384L36.452 22.85L35.51 23.792L24.892 13.177C24.4814 12.7653 23.9257 12.5309 23.3442 12.5242C22.7628 12.5175 22.2018 12.739 21.7819 13.1412C21.3619 13.5434 21.1163 14.0942 21.0978 14.6754C21.0793 15.2566 21.2894 15.8219 21.683 16.25L27.143 22.207C27.339 22.42 27.375 22.737 27.231 22.987C26.4846 24.2917 26.1061 25.7745 26.1359 27.2774C26.1657 28.7802 26.6025 30.2468 27.4 31.521L27.689 31.983H38.646V17.318C38.6406 15.3677 37.8633 13.4989 36.484 12.12L34.325 9.957V9.958ZM24.527 21.318H13.565V21.322L5.612 24.387L6.736 27.31C6.83035 27.555 6.97202 27.779 7.15294 27.9692C7.33387 28.1595 7.55048 28.3122 7.79043 28.4187C8.03038 28.5252 8.28896 28.5834 8.55141 28.59C8.81385 28.5966 9.07502 28.5514 9.32 28.457L25.393 22.262L24.527 21.318ZM9.869 21.322H4.429L5.131 23.146L9.869 21.322ZM29.984 1.332H3.332C2.80157 1.332 2.29286 1.54271 1.91779 1.91779C1.54271 2.29286 1.332 2.80157 1.332 3.332V17.99C1.332 18.5204 1.54271 19.0291 1.91779 19.4042C2.29286 19.7793 2.80157 19.99 3.332 19.99H23.306L20.704 17.147C20.0921 16.4596 19.7706 15.5618 19.8071 14.6423C19.8436 13.7228 20.2352 12.8532 20.8996 12.2165C21.5641 11.5798 22.4495 11.2255 23.3697 11.2283C24.29 11.231 25.1733 11.5904 25.834 12.231L31.938 18.336C31.963 18.222 31.978 18.106 31.983 17.99V7.582L31.977 7.567H31.983V3.332C31.983 2.80174 31.7724 2.29318 31.3976 1.91814C31.0227 1.5431 30.5143 1.33227 29.984 1.332ZM33.316 11.044V17.99C33.3148 18.449 33.2188 18.9028 33.034 19.323L34.19 18.877C34.4351 18.7828 34.6592 18.6411 34.8495 18.4603C35.0399 18.2794 35.1927 18.0628 35.2993 17.8228C35.4059 17.5829 35.4642 17.3243 35.4708 17.0618C35.4775 16.7993 35.4323 16.538 35.338 16.293L33.316 11.043V11.044ZM5.996 15.325V16.658H3.332V15.325H5.997H5.996ZM17.99 15.325V16.658H15.325V15.325H17.99ZM5.997 11.327V12.66H3.332V11.327H5.997ZM9.995 11.327V12.66H7.329V11.327H9.995ZM13.993 11.327V12.66H11.327V11.327H13.993ZM17.99 11.327V12.66H15.325V11.327H17.99ZM7.596 2.665C8.553 2.665 9.328 3.441 9.328 4.398V7.596C9.328 8.553 8.553 9.328 7.596 9.328H4.398C4.17047 9.32813 3.94514 9.28343 3.73488 9.19645C3.52463 9.10946 3.33358 8.98191 3.17264 8.82106C3.01171 8.66022 2.88404 8.46924 2.79694 8.25904C2.70983 8.04884 2.665 7.82353 2.665 7.596V4.398C2.665 3.441 3.441 2.665 4.398 2.665H7.596ZM7.596 3.998H4.398C4.29191 3.998 4.19017 4.04014 4.11516 4.11516C4.04014 4.19017 3.998 4.29191 3.998 4.398V5.33H5.33V6.663H3.998V7.596C3.998 7.816 4.177 7.996 4.398 7.996H7.596C7.70209 7.996 7.80383 7.95386 7.87884 7.87884C7.95386 7.80383 7.996 7.70209 7.996 7.596V6.663H6.663V5.33H7.996V4.398C7.996 4.29191 7.95386 4.19017 7.87884 4.11516C7.80383 4.04014 7.70209 3.998 7.596 3.998ZM29.318 3.332V5.33H27.985V3.332H29.318ZM26.652 3.332V5.33H25.32V3.332H26.652ZM23.987 3.332V5.33H22.655V3.332H23.987ZM21.322 3.332V5.33H19.989V3.332H21.322Z" fill="white"/>
</svg>
